<?xml version="1.0" encoding="UTF-8" standalone="no"?>
<!-- Created with Inkscape (http://www.inkscape.org/) -->

<svg
   xmlns:dc="http://purl.org/dc/elements/1.1/"
   xmlns:cc="http://creativecommons.org/ns#"
   xmlns:rdf="http://www.w3.org/1999/02/22-rdf-syntax-ns#"
   xmlns:svg="http://www.w3.org/2000/svg"
   xmlns="http://www.w3.org/2000/svg"
   xmlns:sodipodi="http://sodipodi.sourceforge.net/DTD/sodipodi-0.dtd"
   xmlns:inkscape="http://www.inkscape.org/namespaces/inkscape"
   id="svg2"
   sodipodi:version="0.32"
   inkscape:version="0.48.3.1 r9886"
   width="188.9335"
   height="179.99049"
   version="1.0"
   sodipodi:docname="film_strip_transparent.svg"
   inkscape:output_extension="org.inkscape.output.svg.inkscape"
   sodipodi:modified="true"
   inkscape:export-filename="/home/steve/work/mel/2012/avea/living postcards/LivingPostcards/extras/film_strip_transparent.png"
   inkscape:export-xdpi="120"
   inkscape:export-ydpi="120">
  <metadata
     id="metadata7">
    <rdf:RDF>
      <cc:Work
         rdf:about="">
        <dc:format>image/svg+xml</dc:format>
        <dc:type
           rdf:resource="http://purl.org/dc/dcmitype/StillImage" />
        <dc:title></dc:title>
      </cc:Work>
    </rdf:RDF>
  </metadata>
  <defs
     id="defs5" />
  <sodipodi:namedview
     inkscape:window-height="1031"
     inkscape:window-width="1426"
     inkscape:pageshadow="2"
     inkscape:pageopacity="0.0"
     guidetolerance="10.0"
     gridtolerance="10.0"
     objecttolerance="10.0"
     borderopacity="1.0"
     bordercolor="#666666"
     pagecolor="#ffffff"
     id="base"
     width="27px"
     height="180px"
     showguides="true"
     inkscape:guide-bbox="true"
     inkscape:zoom="2"
     inkscape:cx="123.70088"
     inkscape:cy="109.35382"
     inkscape:window-x="252"
     inkscape:window-y="0"
     inkscape:current-layer="svg2"
     showgrid="false"
     inkscape:snap-bbox="true"
     inkscape:bbox-paths="true"
     inkscape:bbox-nodes="true"
     fit-margin-top="0"
     fit-margin-left="0"
     fit-margin-right="0"
     fit-margin-bottom="0" />
  <path
     style="fill:#000000;fill-opacity:1;stroke:#000000;stroke-width:2.61550117;stroke-opacity:1"
     d="m 55.288753,1.3077506 0,6.5625 1.5,0 c 2.502967,0 4.5,2.0282829 4.5,4.5312504 l 0,6.40625 c 0,2.502966 -1.997033,4.5 -4.5,4.5 l -1.5,0 0,134.562499 1.5,0 c 2.502967,0 4.5,2.02828 4.5,4.53125 l 0,6.40625 c 0,2.50297 -1.997033,4.5 -4.5,4.5 l -1.5,0 0,5.375 24.375,0 0,-5.375 -0.6875,0 c -2.502968,1e-5 -4.5,-1.99703 -4.5,-4.5 l 0,-6.40625 c 0,-2.50297 1.997033,-4.53125 4.5,-4.53125 l 0.6875,0 0,-134.562499 -0.6875,0 c -2.502968,0 -4.5,-1.997033 -4.5,-4.5 l 0,-6.40625 c 0,-2.5029675 1.997033,-4.5312504 4.5,-4.5312504 l 0.6875,0 0,-6.5625 -24.375,0 z"
     id="rect2161"
     inkscape:connector-curvature="0" />
  <path
     id="path2993"
     d="m 82.279254,1.3077506 0,6.5625 1.5,0 c 2.502967,0 4.5,2.0282829 4.5,4.5312504 l 0,6.40625 c 0,2.502966 -1.997033,4.5 -4.5,4.5 l -1.5,0 0,134.562499 1.5,0 c 2.502967,0 4.5,2.02828 4.5,4.53125 l 0,6.40625 c 0,2.50297 -1.997033,4.5 -4.5,4.5 l -1.5,0 0,5.375 24.374996,0 0,-5.375 -0.6875,0 c -2.50296,1e-5 -4.5,-1.99703 -4.5,-4.5 l 0,-6.40625 c 0,-2.50297 1.99704,-4.53125 4.5,-4.53125 l 0.6875,0 0,-134.562499 -0.6875,0 c -2.50296,0 -4.5,-1.997033 -4.5,-4.5 l 0,-6.40625 c 0,-2.5029675 1.99704,-4.5312504 4.5,-4.5312504 l 0.6875,0 0,-6.5625 -24.374996,0 z"
     style="fill:#000000;fill-opacity:1;stroke:#000000;stroke-width:2.61550117;stroke-opacity:1"
     inkscape:connector-curvature="0" />
  <path
     inkscape:connector-curvature="0"
     style="fill:#000000;fill-opacity:1;stroke:#000000;stroke-width:2.61550117;stroke-opacity:1"
     d="m 109.26975,1.3077506 0,6.5625 1.5,0 c 2.50297,0 4.5,2.0282829 4.5,4.5312504 l 0,6.40625 c 0,2.502966 -1.99703,4.5 -4.5,4.5 l -1.5,0 0,134.562499 1.5,0 c 2.50297,0 4.5,2.02828 4.5,4.53125 l 0,6.40625 c 0,2.50297 -1.99703,4.5 -4.5,4.5 l -1.5,0 0,5.375 24.375,0 0,-5.375 -0.6875,0 c -2.50296,1e-5 -4.5,-1.99703 -4.5,-4.5 l 0,-6.40625 c 0,-2.50297 1.99704,-4.53125 4.5,-4.53125 l 0.6875,0 0,-134.562499 -0.6875,0 c -2.50296,0 -4.5,-1.997033 -4.5,-4.5 l 0,-6.40625 c 0,-2.5029675 1.99704,-4.5312504 4.5,-4.5312504 l 0.6875,0 0,-6.5625 -24.375,0 z"
     id="path2995" />
  <path
     id="path2999"
     d="m 28.298252,1.3077506 0,6.5625 1.5,0 c 2.502967,0 4.5,2.0282829 4.5,4.5312504 l 0,6.40625 c 0,2.502966 -1.997033,4.5 -4.5,4.5 l -1.5,0 0,134.562499 1.5,0 c 2.502967,0 4.5,2.02828 4.5,4.53125 l 0,6.40625 c 0,2.50297 -1.997033,4.5 -4.5,4.5 l -1.5,0 0,5.375 24.374999,0 0,-5.375 -0.6875,0 c -2.502968,1e-5 -4.5,-1.99703 -4.5,-4.5 l 0,-6.40625 c 0,-2.50297 1.997033,-4.53125 4.5,-4.53125 l 0.6875,0 0,-134.562499 -0.6875,0 c -2.502968,0 -4.5,-1.997033 -4.5,-4.5 l 0,-6.40625 c 0,-2.5029675 1.997033,-4.5312504 4.5,-4.5312504 l 0.6875,0 0,-6.5625 -24.374999,0 z"
     style="fill:#000000;fill-opacity:1;stroke:#000000;stroke-width:2.61550117;stroke-opacity:1"
     inkscape:connector-curvature="0" />
  <path
     inkscape:connector-curvature="0"
     style="fill:#000000;fill-opacity:1;stroke:#000000;stroke-width:2.61550117;stroke-opacity:1"
     d="m 1.3077506,1.3077506 0,6.5625 1.5,0 c 2.502967,0 4.5,2.0282829 4.5,4.5312504 l 0,6.40625 c 0,2.502966 -1.997033,4.5 -4.5,4.5 l -1.5,0 0,134.562499 1.5,0 c 2.502967,0 4.5,2.02828 4.5,4.53125 l 0,6.40625 c 0,2.50297 -1.997033,4.5 -4.5,4.5 l -1.5,0 0,5.375 24.3750004,0 0,-5.375 -0.6875,0 c -2.502968,1e-5 -4.5,-1.99703 -4.5,-4.5 l 0,-6.40625 c 0,-2.50297 1.997033,-4.53125 4.5,-4.53125 l 0.6875,0 0,-134.562499 -0.6875,0 c -2.502968,0 -4.5,-1.997033 -4.5,-4.5 l 0,-6.40625 c 0,-2.5029675 1.997033,-4.5312504 4.5,-4.5312504 l 0.6875,0 0,-6.5625 -24.3750004,0 z"
     id="path3001" />
  <path
     id="path3003"
     d="m 136.26026,1.3077506 0,6.5625 1.5,0 c 2.50296,0 4.5,2.0282829 4.5,4.5312504 l 0,6.40625 c 0,2.502966 -1.99704,4.5 -4.5,4.5 l -1.5,0 0,134.562499 1.5,0 c 2.50296,0 4.5,2.02828 4.5,4.53125 l 0,6.40625 c 0,2.50297 -1.99704,4.5 -4.5,4.5 l -1.5,0 0,5.375 24.37499,0 0,-5.375 -0.6875,0 c -2.50296,1e-5 -4.5,-1.99703 -4.5,-4.5 l 0,-6.40625 c 0,-2.50297 1.99704,-4.53125 4.5,-4.53125 l 0.6875,0 0,-134.562499 -0.6875,0 c -2.50296,0 -4.5,-1.997033 -4.5,-4.5 l 0,-6.40625 c 0,-2.5029675 1.99704,-4.5312504 4.5,-4.5312504 l 0.6875,0 0,-6.5625 -24.37499,0 z"
     style="fill:#000000;fill-opacity:1;stroke:#000000;stroke-width:2.61550117;stroke-opacity:1"
     inkscape:connector-curvature="0" />
  <path
     inkscape:connector-curvature="0"
     style="fill:#000000;fill-opacity:1;stroke:#000000;stroke-width:2.61550117;stroke-opacity:1"
     d="m 163.25075,1.3077506 0,6.5625 1.5,0 c 2.50297,0 4.5,2.0282829 4.5,4.5312504 l 0,6.40625 c 0,2.502966 -1.99703,4.5 -4.5,4.5 l -1.5,0 0,134.562499 1.5,0 c 2.50297,0 4.5,2.02828 4.5,4.53125 l 0,6.40625 c 0,2.50297 -1.99703,4.5 -4.5,4.5 l -1.5,0 0,5.375 24.375,0 0,-5.375 -0.6875,0 c -2.50296,1e-5 -4.5,-1.99703 -4.5,-4.5 l 0,-6.40625 c 0,-2.50297 1.99704,-4.53125 4.5,-4.53125 l 0.6875,0 0,-134.562499 -0.6875,0 c -2.50296,0 -4.5,-1.997033 -4.5,-4.5 l 0,-6.40625 c 0,-2.5029675 1.99704,-4.5312504 4.5,-4.5312504 l 0.6875,0 0,-6.5625 -24.375,0 z"
     id="path3005" />
</svg>
